<svg width="20" height="20" viewBox="0 0 20 20" fill="none" xmlns="http://www.w3.org/2000/svg">
<path fill-rule="evenodd" clip-rule="evenodd" d="M15.975 9.49374C16.1506 9.66952 16.2492 9.9078 16.2492 10.1562C16.2492 10.4047 16.1506 10.643 15.975 10.8187L11.9125 14.8812C11.7348 15.0468 11.4997 15.137 11.2568 15.1327C11.014 15.1284 10.7822 15.03 10.6105 14.8583C10.4387 14.6865 10.3403 14.4548 10.336 14.2119C10.3317 13.969 10.4219 13.734 10.5875 13.5562L13.9875 10.1562L10.5875 6.75624C10.4219 6.57852 10.3317 6.34346 10.336 6.10059C10.3403 5.85771 10.4387 5.62598 10.6105 5.45421C10.7822 5.28245 11.014 5.18406 11.2568 5.17977C11.4997 5.17549 11.7348 5.26564 11.9125 5.43124L15.975 9.49374ZM5.66249 5.43124L9.72499 9.49374C9.90055 9.66952 9.99917 9.9078 9.99917 10.1562C9.99917 10.4047 9.90055 10.643 9.72499 10.8187L5.66249 14.8812C5.48477 15.0468 5.24971 15.137 5.00684 15.1327C4.76396 15.1284 4.53223 15.03 4.36046 14.8583C4.1887 14.6865 4.09031 14.4548 4.08602 14.2119C4.08174 13.969 4.17189 13.734 4.33749 13.5562L7.73749 10.1562L4.33749 6.75624C4.17189 6.57852 4.08174 6.34346 4.08602 6.10059C4.09031 5.85771 4.1887 5.62598 4.36046 5.45421C4.53223 5.28245 4.76396 5.18406 5.00684 5.17977C5.24971 5.17549 5.48477 5.26564 5.66249 5.43124Z" fill="#0F766E"/>
</svg>
