<svg width="201" height="111" viewBox="0 0 201 111" fill="none" xmlns="http://www.w3.org/2000/svg">
<path d="M103.854 0.549194H34.5812C31.0027 0.549194 27.3118 1.19932 23.5473 2.38219C19.455 3.62092 15.6925 5.65896 12.2761 8.4238C8.72629 11.2877 5.86629 14.9487 3.63298 19.2558L3.61985 19.2815C1.21093 23.9818 0.164856 29.4559 0.164856 35.4416C0.164856 41.4311 1.21222 46.9134 3.60604 51.6426L3.61941 51.6691L3.63304 51.6953C5.8673 56.0043 8.72874 59.6666 12.2807 62.5311L12.2991 62.5459L12.3176 62.5606C15.7239 65.2641 19.4607 67.2814 23.5119 68.5579L23.548 68.5693L23.5843 68.5802C27.3462 69.7139 31.0238 70.334 34.5812 70.334H75.2515C76.5307 70.334 77.824 70.6561 78.6922 71.5881C79.3864 72.3153 79.9413 73.4015 79.9413 75.4318C79.9413 76.804 79.7184 78.2721 78.7351 79.302C77.8591 80.242 76.4677 80.3937 75.2515 80.3937H0.169268V110.188L77.7298 110.188C87.288 110.138 95.7584 109.261 103.498 103.321C105.971 101.424 108.098 99.1436 109.884 96.5202C112.274 92.5394 114.298 87.4566 114.298 87.4566C120.939 70.6466 127.271 53.7077 133.755 36.8368L161.948 110.188H200.165L152.237 0.549194H115.899L95.5878 47.0139C89.771 42.9358 82.6462 40.5745 75.5317 40.4051L75.4596 40.4034H34.5812C32.5221 40.4034 31.5951 39.863 31.0738 39.353C30.5169 38.7293 29.9594 37.6416 29.9594 35.4416C29.9594 33.282 30.5196 32.1525 31.1436 31.4545C31.6769 30.8949 32.5686 30.3438 34.5812 30.3438H90.8771L103.854 0.549194Z" fill="#0d9488"/>
</svg>
